<?xml version="1.0" standalone="no"?><!DOCTYPE svg PUBLIC "-//W3C//DTD SVG 1.1//EN" "http://www.w3.org/Graphics/SVG/1.1/DTD/svg11.dtd"><svg class="icon" width="200px" height="200.00px" viewBox="0 0 1024 1024" version="1.1" xmlns="http://www.w3.org/2000/svg"><path d="M870.4 1024H153.6c-85.333333 0-153.6-68.266667-153.6-153.6V153.6C0 68.266667 68.266667 0 153.6 0h712.533333c85.333333 0 153.6 68.266667 153.6 153.6v712.533333c4.266667 89.6-64 157.866667-149.333333 157.866667z" fill="#FE4066" /><path d="M874.666667 853.333333c-25.6 0-46.933333-21.333333-46.933334-46.933333V273.066667l-298.666666 132.266666c-12.8 4.266667-25.6 4.266667-42.666667 0l-298.666667-132.266666V810.666667c0 21.333333-17.066667 42.666667-42.666666 42.666666s-46.933333-21.333333-46.933334-42.666666V230.4c0-21.333333 8.533333-38.4 25.6-51.2 17.066667-8.533333 38.4-12.8 59.733334-4.266667L512 315.733333l328.533333-140.8c17.066667-8.533333 38.4-4.266667 55.466667 8.533334 17.066667 12.8 25.6 29.866667 25.6 51.2V810.666667c0 21.333333-21.333333 42.666667-46.933333 42.666666z" fill="#FFFFFF" /><path d="M516.266667 742.4h-12.8c-38.4 0-170.666667-8.533333-226.133334-59.733333-17.066667-17.066667-17.066667-46.933333 0-64 17.066667-21.333333 46.933333-21.333333 64-4.266667 12.8 12.8 72.533333 34.133333 162.133334 34.133333 93.866667 0 153.6-17.066667 170.666666-34.133333 17.066667-17.066667 46.933333-17.066667 64 0 17.066667 17.066667 17.066667 46.933333 0 64-21.333333 21.333333-59.733333 38.4-106.666666 51.2-29.866667 8.533333-72.533333 12.8-115.2 12.8z" fill="#FFFFFF" /></svg>